<svg width="14" height="14" viewBox="0 0 14 14" fill="none" xmlns="http://www.w3.org/2000/svg">
<g opacity="0.6">
<path fill-rule="evenodd" clip-rule="evenodd" d="M6.58569 1.27295C4.94367 1.27295 3.61102 2.60602 3.61102 4.24761C3.61102 5.8892 4.94367 7.22227 6.58569 7.22227C8.22727 7.22227 9.56035 5.8892 9.56035 4.24761C9.56035 2.60602 8.22727 1.27295 6.58569 1.27295ZM6.58569 2.12285C7.75813 2.12285 8.71044 3.07474 8.71044 4.24761C8.71044 5.42048 7.75813 6.37237 6.58569 6.37237C5.41282 6.37237 4.46093 5.42048 4.46093 4.24761C4.46093 3.07474 5.41282 2.12285 6.58569 2.12285Z" fill="#070F21"/>
<path fill-rule="evenodd" clip-rule="evenodd" d="M1.48626 12.3218H6.74376C6.97833 12.3218 7.16871 12.5122 7.16871 12.7467C7.16871 12.9813 6.97833 13.1717 6.74376 13.1717H1.0613C0.826306 13.1717 0.636353 12.9813 0.636353 12.7467C0.636353 12.7467 0.636353 12.3961 0.636353 11.8968C0.636353 9.7844 2.34848 8.07227 4.46092 8.07227H6.74588C6.98046 8.07227 7.17083 8.26264 7.17083 8.49722C7.17083 8.73179 6.98046 8.92217 6.74588 8.92217H4.46092C2.81805 8.92217 1.48626 10.254 1.48626 11.8968V12.3218Z" fill="#070F21"/>
<path fill-rule="evenodd" clip-rule="evenodd" d="M9.2582 8.96817L9.99124 7.55223C10.0643 7.41114 10.2101 7.32275 10.3686 7.32275C10.5275 7.32275 10.6733 7.41114 10.746 7.55223L11.4794 8.96817L13.0526 9.22824C13.2094 9.25416 13.3386 9.36507 13.3875 9.51593C13.4368 9.66721 13.3977 9.83294 13.2859 9.94598L12.1657 11.081L12.405 12.6576C12.4288 12.8144 12.3629 12.9716 12.2346 13.0651C12.1062 13.1582 11.9362 13.1722 11.7943 13.1012L10.3686 12.3865L8.94331 13.1012C8.80138 13.1722 8.6314 13.1582 8.50306 13.0651C8.37473 12.9716 8.30886 12.8144 8.33266 12.6576L8.57148 11.081L7.45173 9.94598C7.33997 9.83294 7.30087 9.66721 7.34974 9.51593C7.39904 9.36507 7.52822 9.25416 7.68503 9.22824L9.2582 8.96817ZM10.3686 8.67155L9.91475 9.54823C9.85313 9.66721 9.73882 9.75008 9.60666 9.77218L8.6331 9.93281L9.32619 10.6357C9.42053 10.7309 9.46388 10.8652 9.44391 10.9977L9.29602 11.9734L10.1782 11.5315C10.2981 11.4711 10.4396 11.4711 10.5594 11.5315L11.4416 11.9734L11.2937 10.9977C11.2737 10.8652 11.3171 10.7309 11.4114 10.6357L12.1045 9.93281L11.131 9.77218C10.9984 9.75008 10.8845 9.66721 10.8229 9.54823L10.3686 8.67155Z" fill="#070F21"/>
</g>
</svg>
