<svg width="20" height="20" viewBox="0 0 20 20" fill="none" xmlns="http://www.w3.org/2000/svg">
<path d="M8.16945 1.6665C8.01142 1.66638 7.85981 1.72896 7.74787 1.8405L1.84179 7.74657C1.78633 7.80198 1.74232 7.86777 1.7123 7.94019C1.68228 8.01262 1.66683 8.09025 1.66683 8.16864C1.66683 8.24704 1.68228 8.32467 1.7123 8.3971C1.74232 8.46952 1.78633 8.53531 1.84179 8.59072C2.41451 9.16343 3.12045 9.29169 3.6345 9.29169C3.84628 9.29169 4.0342 9.27081 4.18335 9.24595L7.92187 12.9845C7.82443 13.3822 7.7608 13.7859 7.73196 14.1935C7.67728 15.0307 7.76974 16.206 8.59103 17.0272C8.70288 17.139 8.85451 17.2017 9.01261 17.2017C9.1707 17.2017 9.32233 17.139 9.43418 17.0272L12.8098 13.6516L16.607 17.4498C16.8396 17.6825 18.0606 18.5256 18.2933 18.293C18.526 18.0603 17.6828 16.8373 17.4501 16.6057L13.6539 12.8095L17.0276 9.43387C17.1393 9.32202 17.202 9.17039 17.202 9.0123C17.202 8.8542 17.1393 8.70258 17.0276 8.59072C16.2073 7.76944 15.032 7.67597 14.1938 7.73166C13.7862 7.75949 13.3815 7.82412 12.9858 7.92256L9.24626 4.18404C9.27745 4.00241 9.29341 3.81849 9.29399 3.6342C9.29399 3.12115 9.16473 2.41421 8.59103 1.8405C8.47909 1.72896 8.32747 1.66638 8.16945 1.6665ZM8.02428 4.18603V4.18404V4.18603ZM8.02428 4.18404V4.18603C7.98978 4.29095 7.98508 4.4034 8.01071 4.51083C8.03634 4.61827 8.09129 4.71648 8.16945 4.79453L12.3872 9.0113C12.4657 9.08948 12.5643 9.14428 12.6721 9.16957C12.78 9.19486 12.8927 9.18963 12.9977 9.15448H12.9997L13.0166 9.1505C13.426 9.02878 13.8474 8.9521 14.2734 8.92182C14.7765 8.88801 15.2707 8.93077 15.6753 9.10079L9.1001 15.673C8.93207 15.2674 8.88931 14.7742 8.92312 14.2711C8.95346 13.8448 9.03014 13.423 9.15181 13.0133L9.15678 12.9984V12.9964C9.19205 12.8914 9.19733 12.7786 9.17204 12.6708C9.14674 12.5629 9.09188 12.4643 9.0136 12.3859L4.79483 8.16815C4.71354 8.08629 4.61025 8.02977 4.49749 8.00541C4.38472 7.98106 4.26731 7.98993 4.15948 8.03094L4.04514 8.05679C3.94173 8.07667 3.79657 8.09755 3.6345 8.09755C3.49828 8.09755 3.36007 8.08463 3.22584 8.04983L8.05212 3.22455C8.08512 3.35856 8.10115 3.49619 8.09985 3.6342C8.09885 3.81914 8.074 4.00407 8.02528 4.18304L8.02428 4.18404Z" fill="#FF9900"/>
</svg>
