<svg width="17" height="16" viewBox="0 0 17 16" fill="none" xmlns="http://www.w3.org/2000/svg">
<mask id="path-1-outside-1_2_3541" maskUnits="userSpaceOnUse" x="0.16748" y="-0.207031" width="16" height="16" fill="black">
<rect fill="white" x="0.16748" y="-0.207031" width="16" height="16"/>
<path d="M1.30621 2.47477C1.78791 2.01866 3.41475 0.12927 3.98947 1.036C4.06911 1.16212 4.09539 1.31472 4.06253 1.46022C4.02967 1.60572 3.94036 1.73221 3.81425 1.81188C3.19494 2.20323 2.63297 2.67868 2.14444 3.22461C2.09182 3.28373 2.02725 3.33101 1.95501 3.36335C1.88277 3.39568 1.80449 3.41233 1.72534 3.41218C1.61746 3.4106 1.51229 3.37822 1.42219 3.31887C1.33209 3.25951 1.26083 3.17565 1.21679 3.07716C1.17276 2.97866 1.15778 2.86964 1.17362 2.76292C1.18946 2.6562 1.23546 2.55623 1.30621 2.47477ZM12.1116 1.81188C12.731 2.20352 13.2931 2.67904 13.782 3.22489C13.8347 3.28393 13.8993 3.33114 13.9715 3.36342C14.0437 3.3957 14.122 3.41232 14.2011 3.41219C14.309 3.41059 14.4142 3.37819 14.5043 3.31881C14.5944 3.25944 14.6657 3.17555 14.7097 3.07704C14.7537 2.97852 14.7687 2.86948 14.7528 2.76274C14.737 2.65601 14.6909 2.55603 14.6202 2.47457C14.1367 2.0182 12.5141 0.13044 11.9365 1.03595C11.8568 1.16208 11.8305 1.31468 11.8634 1.46019C11.8962 1.6057 11.9855 1.73221 12.1116 1.81188ZM12.5384 13.4328C12.9003 13.0973 13.5577 12.5535 13.0284 12.0715C12.915 11.9748 12.7678 11.9269 12.6192 11.9383C12.4706 11.9498 12.3325 12.0196 12.2352 12.1325C11.4876 13.0057 10.4904 13.6288 9.37792 13.918C8.2654 14.2072 7.09099 14.1486 6.0128 13.7501C4.93461 13.3516 4.00441 12.6322 3.34745 11.689C2.6905 10.7457 2.33832 9.62383 2.33834 8.47434C2.36175 2.86087 9.73599 0.738073 12.7291 5.48607C12.8099 5.60921 12.9358 5.69573 13.0797 5.72706C13.2237 5.75838 13.3741 5.73201 13.4988 5.6536C13.6236 5.5752 13.7125 5.45101 13.7467 5.30772C13.7808 5.16443 13.7574 5.01346 13.6815 4.88724C13.0761 3.91708 12.2332 3.11745 11.2325 2.56405C10.2318 2.01065 9.10646 1.72178 7.96295 1.7248C1.83412 1.71858 -1.09185 9.34769 3.39326 13.4273L2.55695 14.2637C2.50473 14.3159 2.4633 14.3779 2.43504 14.4462C2.40678 14.5144 2.39223 14.5875 2.39223 14.6614C2.39223 14.7353 2.40678 14.8084 2.43504 14.8766C2.4633 14.9449 2.50473 15.0069 2.55695 15.0591C2.60918 15.1113 2.67117 15.1527 2.73941 15.181C2.80764 15.2093 2.88077 15.2238 2.95463 15.2238C3.02848 15.2238 3.10162 15.2093 3.16985 15.181C3.23808 15.1527 3.30008 15.1113 3.35231 15.0591L4.28495 14.1262C5.3802 14.8358 6.65741 15.2132 7.96243 15.2129C9.26745 15.2126 10.5445 14.8346 11.6394 14.1245L12.5741 15.0591C12.6263 15.1116 12.6883 15.1533 12.7566 15.1818C12.8249 15.2103 12.8982 15.2251 12.9722 15.2252C13.0462 15.2253 13.1196 15.2108 13.188 15.1826C13.2564 15.1543 13.3185 15.1128 13.3709 15.0605C13.4232 15.0081 13.4647 14.946 13.493 14.8775C13.5212 14.8091 13.5357 14.7358 13.5356 14.6618C13.5355 14.5878 13.5207 14.5145 13.4922 14.4462C13.4637 14.3779 13.422 14.3159 13.3695 14.2637L12.5384 13.4328ZM7.96295 4.37645C7.88908 4.37643 7.81593 4.39096 7.74768 4.41922C7.67943 4.44748 7.61742 4.48891 7.56518 4.54114C7.51295 4.59337 7.47152 4.65539 7.44326 4.72364C7.415 4.79189 7.40047 4.86504 7.40049 4.93891V8.47433C7.40047 8.5482 7.415 8.62135 7.44326 8.6896C7.47152 8.75785 7.51295 8.81986 7.56518 8.8721C7.61742 8.92433 7.67943 8.96576 7.74768 8.99402C7.81593 9.02228 7.88908 9.03681 7.96295 9.03679H10.3199C10.4672 9.03392 10.6074 8.97339 10.7106 8.86822C10.8137 8.76305 10.8715 8.62162 10.8715 8.47432C10.8715 8.32701 10.8137 8.18559 10.7106 8.08042C10.6074 7.97525 10.4671 7.91474 10.3199 7.91187H8.52541V4.93891C8.52543 4.86504 8.51089 4.79189 8.48263 4.72364C8.45437 4.65539 8.41294 4.59338 8.36071 4.54114C8.30848 4.48891 8.24646 4.44748 8.17822 4.41922C8.10997 4.39096 8.03682 4.37643 7.96295 4.37645ZM15.2749 9.68632H14.1956L15.7143 7.78774C15.7789 7.70455 15.819 7.60501 15.8302 7.50028C15.8413 7.39556 15.823 7.2898 15.7774 7.19489C15.7318 7.09998 15.6606 7.01967 15.5718 6.96299C15.483 6.90631 15.3802 6.8755 15.2749 6.87402H13.0251C12.8777 6.87682 12.7374 6.93732 12.6342 7.0425C12.531 7.14768 12.4732 7.28915 12.4732 7.4365C12.4732 7.58385 12.531 7.72532 12.6342 7.8305C12.7374 7.93567 12.8778 7.99615 13.0251 7.99895H14.1044L12.5856 9.89752C12.5211 9.98071 12.4809 10.0803 12.4698 10.185C12.4586 10.2897 12.4769 10.3955 12.5226 10.4904C12.5682 10.5853 12.6394 10.6656 12.7282 10.7223C12.817 10.779 12.9198 10.8098 13.0251 10.8112H15.275C15.4222 10.8084 15.5625 10.7479 15.6656 10.6427C15.7688 10.5375 15.8266 10.3961 15.8265 10.2488C15.8265 10.1015 15.7688 9.96005 15.6656 9.85488C15.5625 9.74971 15.4222 9.6892 15.2749 9.68633V9.68632Z"/>
</mask>
<path d="M1.30621 2.47477C1.78791 2.01866 3.41475 0.12927 3.98947 1.036C4.06911 1.16212 4.09539 1.31472 4.06253 1.46022C4.02967 1.60572 3.94036 1.73221 3.81425 1.81188C3.19494 2.20323 2.63297 2.67868 2.14444 3.22461C2.09182 3.28373 2.02725 3.33101 1.95501 3.36335C1.88277 3.39568 1.80449 3.41233 1.72534 3.41218C1.61746 3.4106 1.51229 3.37822 1.42219 3.31887C1.33209 3.25951 1.26083 3.17565 1.21679 3.07716C1.17276 2.97866 1.15778 2.86964 1.17362 2.76292C1.18946 2.6562 1.23546 2.55623 1.30621 2.47477ZM12.1116 1.81188C12.731 2.20352 13.2931 2.67904 13.782 3.22489C13.8347 3.28393 13.8993 3.33114 13.9715 3.36342C14.0437 3.3957 14.122 3.41232 14.2011 3.41219C14.309 3.41059 14.4142 3.37819 14.5043 3.31881C14.5944 3.25944 14.6657 3.17555 14.7097 3.07704C14.7537 2.97852 14.7687 2.86948 14.7528 2.76274C14.737 2.65601 14.6909 2.55603 14.6202 2.47457C14.1367 2.0182 12.5141 0.13044 11.9365 1.03595C11.8568 1.16208 11.8305 1.31468 11.8634 1.46019C11.8962 1.6057 11.9855 1.73221 12.1116 1.81188ZM12.5384 13.4328C12.9003 13.0973 13.5577 12.5535 13.0284 12.0715C12.915 11.9748 12.7678 11.9269 12.6192 11.9383C12.4706 11.9498 12.3325 12.0196 12.2352 12.1325C11.4876 13.0057 10.4904 13.6288 9.37792 13.918C8.2654 14.2072 7.09099 14.1486 6.0128 13.7501C4.93461 13.3516 4.00441 12.6322 3.34745 11.689C2.6905 10.7457 2.33832 9.62383 2.33834 8.47434C2.36175 2.86087 9.73599 0.738073 12.7291 5.48607C12.8099 5.60921 12.9358 5.69573 13.0797 5.72706C13.2237 5.75838 13.3741 5.73201 13.4988 5.6536C13.6236 5.5752 13.7125 5.45101 13.7467 5.30772C13.7808 5.16443 13.7574 5.01346 13.6815 4.88724C13.0761 3.91708 12.2332 3.11745 11.2325 2.56405C10.2318 2.01065 9.10646 1.72178 7.96295 1.7248C1.83412 1.71858 -1.09185 9.34769 3.39326 13.4273L2.55695 14.2637C2.50473 14.3159 2.4633 14.3779 2.43504 14.4462C2.40678 14.5144 2.39223 14.5875 2.39223 14.6614C2.39223 14.7353 2.40678 14.8084 2.43504 14.8766C2.4633 14.9449 2.50473 15.0069 2.55695 15.0591C2.60918 15.1113 2.67117 15.1527 2.73941 15.181C2.80764 15.2093 2.88077 15.2238 2.95463 15.2238C3.02848 15.2238 3.10162 15.2093 3.16985 15.181C3.23808 15.1527 3.30008 15.1113 3.35231 15.0591L4.28495 14.1262C5.3802 14.8358 6.65741 15.2132 7.96243 15.2129C9.26745 15.2126 10.5445 14.8346 11.6394 14.1245L12.5741 15.0591C12.6263 15.1116 12.6883 15.1533 12.7566 15.1818C12.8249 15.2103 12.8982 15.2251 12.9722 15.2252C13.0462 15.2253 13.1196 15.2108 13.188 15.1826C13.2564 15.1543 13.3185 15.1128 13.3709 15.0605C13.4232 15.0081 13.4647 14.946 13.493 14.8775C13.5212 14.8091 13.5357 14.7358 13.5356 14.6618C13.5355 14.5878 13.5207 14.5145 13.4922 14.4462C13.4637 14.3779 13.422 14.3159 13.3695 14.2637L12.5384 13.4328ZM7.96295 4.37645C7.88908 4.37643 7.81593 4.39096 7.74768 4.41922C7.67943 4.44748 7.61742 4.48891 7.56518 4.54114C7.51295 4.59337 7.47152 4.65539 7.44326 4.72364C7.415 4.79189 7.40047 4.86504 7.40049 4.93891V8.47433C7.40047 8.5482 7.415 8.62135 7.44326 8.6896C7.47152 8.75785 7.51295 8.81986 7.56518 8.8721C7.61742 8.92433 7.67943 8.96576 7.74768 8.99402C7.81593 9.02228 7.88908 9.03681 7.96295 9.03679H10.3199C10.4672 9.03392 10.6074 8.97339 10.7106 8.86822C10.8137 8.76305 10.8715 8.62162 10.8715 8.47432C10.8715 8.32701 10.8137 8.18559 10.7106 8.08042C10.6074 7.97525 10.4671 7.91474 10.3199 7.91187H8.52541V4.93891C8.52543 4.86504 8.51089 4.79189 8.48263 4.72364C8.45437 4.65539 8.41294 4.59338 8.36071 4.54114C8.30848 4.48891 8.24646 4.44748 8.17822 4.41922C8.10997 4.39096 8.03682 4.37643 7.96295 4.37645ZM15.2749 9.68632H14.1956L15.7143 7.78774C15.7789 7.70455 15.819 7.60501 15.8302 7.50028C15.8413 7.39556 15.823 7.2898 15.7774 7.19489C15.7318 7.09998 15.6606 7.01967 15.5718 6.96299C15.483 6.90631 15.3802 6.8755 15.2749 6.87402H13.0251C12.8777 6.87682 12.7374 6.93732 12.6342 7.0425C12.531 7.14768 12.4732 7.28915 12.4732 7.4365C12.4732 7.58385 12.531 7.72532 12.6342 7.8305C12.7374 7.93567 12.8778 7.99615 13.0251 7.99895H14.1044L12.5856 9.89752C12.5211 9.98071 12.4809 10.0803 12.4698 10.185C12.4586 10.2897 12.4769 10.3955 12.5226 10.4904C12.5682 10.5853 12.6394 10.6656 12.7282 10.7223C12.817 10.779 12.9198 10.8098 13.0251 10.8112H15.275C15.4222 10.8084 15.5625 10.7479 15.6656 10.6427C15.7688 10.5375 15.8266 10.3961 15.8265 10.2488C15.8265 10.1015 15.7688 9.96005 15.6656 9.85488C15.5625 9.74971 15.4222 9.6892 15.2749 9.68633V9.68632Z" fill="white"/>
<path d="M1.30621 2.47477C1.78791 2.01866 3.41475 0.12927 3.98947 1.036C4.06911 1.16212 4.09539 1.31472 4.06253 1.46022C4.02967 1.60572 3.94036 1.73221 3.81425 1.81188C3.19494 2.20323 2.63297 2.67868 2.14444 3.22461C2.09182 3.28373 2.02725 3.33101 1.95501 3.36335C1.88277 3.39568 1.80449 3.41233 1.72534 3.41218C1.61746 3.4106 1.51229 3.37822 1.42219 3.31887C1.33209 3.25951 1.26083 3.17565 1.21679 3.07716C1.17276 2.97866 1.15778 2.86964 1.17362 2.76292C1.18946 2.6562 1.23546 2.55623 1.30621 2.47477ZM12.1116 1.81188C12.731 2.20352 13.2931 2.67904 13.782 3.22489C13.8347 3.28393 13.8993 3.33114 13.9715 3.36342C14.0437 3.3957 14.122 3.41232 14.2011 3.41219C14.309 3.41059 14.4142 3.37819 14.5043 3.31881C14.5944 3.25944 14.6657 3.17555 14.7097 3.07704C14.7537 2.97852 14.7687 2.86948 14.7528 2.76274C14.737 2.65601 14.6909 2.55603 14.6202 2.47457C14.1367 2.0182 12.5141 0.13044 11.9365 1.03595C11.8568 1.16208 11.8305 1.31468 11.8634 1.46019C11.8962 1.6057 11.9855 1.73221 12.1116 1.81188ZM12.5384 13.4328C12.9003 13.0973 13.5577 12.5535 13.0284 12.0715C12.915 11.9748 12.7678 11.9269 12.6192 11.9383C12.4706 11.9498 12.3325 12.0196 12.2352 12.1325C11.4876 13.0057 10.4904 13.6288 9.37792 13.918C8.2654 14.2072 7.09099 14.1486 6.0128 13.7501C4.93461 13.3516 4.00441 12.6322 3.34745 11.689C2.6905 10.7457 2.33832 9.62383 2.33834 8.47434C2.36175 2.86087 9.73599 0.738073 12.7291 5.48607C12.8099 5.60921 12.9358 5.69573 13.0797 5.72706C13.2237 5.75838 13.3741 5.73201 13.4988 5.6536C13.6236 5.5752 13.7125 5.45101 13.7467 5.30772C13.7808 5.16443 13.7574 5.01346 13.6815 4.88724C13.0761 3.91708 12.2332 3.11745 11.2325 2.56405C10.2318 2.01065 9.10646 1.72178 7.96295 1.7248C1.83412 1.71858 -1.09185 9.34769 3.39326 13.4273L2.55695 14.2637C2.50473 14.3159 2.4633 14.3779 2.43504 14.4462C2.40678 14.5144 2.39223 14.5875 2.39223 14.6614C2.39223 14.7353 2.40678 14.8084 2.43504 14.8766C2.4633 14.9449 2.50473 15.0069 2.55695 15.0591C2.60918 15.1113 2.67117 15.1527 2.73941 15.181C2.80764 15.2093 2.88077 15.2238 2.95463 15.2238C3.02848 15.2238 3.10162 15.2093 3.16985 15.181C3.23808 15.1527 3.30008 15.1113 3.35231 15.0591L4.28495 14.1262C5.3802 14.8358 6.65741 15.2132 7.96243 15.2129C9.26745 15.2126 10.5445 14.8346 11.6394 14.1245L12.5741 15.0591C12.6263 15.1116 12.6883 15.1533 12.7566 15.1818C12.8249 15.2103 12.8982 15.2251 12.9722 15.2252C13.0462 15.2253 13.1196 15.2108 13.188 15.1826C13.2564 15.1543 13.3185 15.1128 13.3709 15.0605C13.4232 15.0081 13.4647 14.946 13.493 14.8775C13.5212 14.8091 13.5357 14.7358 13.5356 14.6618C13.5355 14.5878 13.5207 14.5145 13.4922 14.4462C13.4637 14.3779 13.422 14.3159 13.3695 14.2637L12.5384 13.4328ZM7.96295 4.37645C7.88908 4.37643 7.81593 4.39096 7.74768 4.41922C7.67943 4.44748 7.61742 4.48891 7.56518 4.54114C7.51295 4.59337 7.47152 4.65539 7.44326 4.72364C7.415 4.79189 7.40047 4.86504 7.40049 4.93891V8.47433C7.40047 8.5482 7.415 8.62135 7.44326 8.6896C7.47152 8.75785 7.51295 8.81986 7.56518 8.8721C7.61742 8.92433 7.67943 8.96576 7.74768 8.99402C7.81593 9.02228 7.88908 9.03681 7.96295 9.03679H10.3199C10.4672 9.03392 10.6074 8.97339 10.7106 8.86822C10.8137 8.76305 10.8715 8.62162 10.8715 8.47432C10.8715 8.32701 10.8137 8.18559 10.7106 8.08042C10.6074 7.97525 10.4671 7.91474 10.3199 7.91187H8.52541V4.93891C8.52543 4.86504 8.51089 4.79189 8.48263 4.72364C8.45437 4.65539 8.41294 4.59338 8.36071 4.54114C8.30848 4.48891 8.24646 4.44748 8.17822 4.41922C8.10997 4.39096 8.03682 4.37643 7.96295 4.37645ZM15.2749 9.68632H14.1956L15.7143 7.78774C15.7789 7.70455 15.819 7.60501 15.8302 7.50028C15.8413 7.39556 15.823 7.2898 15.7774 7.19489C15.7318 7.09998 15.6606 7.01967 15.5718 6.96299C15.483 6.90631 15.3802 6.8755 15.2749 6.87402H13.0251C12.8777 6.87682 12.7374 6.93732 12.6342 7.0425C12.531 7.14768 12.4732 7.28915 12.4732 7.4365C12.4732 7.58385 12.531 7.72532 12.6342 7.8305C12.7374 7.93567 12.8778 7.99615 13.0251 7.99895H14.1044L12.5856 9.89752C12.5211 9.98071 12.4809 10.0803 12.4698 10.185C12.4586 10.2897 12.4769 10.3955 12.5226 10.4904C12.5682 10.5853 12.6394 10.6656 12.7282 10.7223C12.817 10.779 12.9198 10.8098 13.0251 10.8112H15.275C15.4222 10.8084 15.5625 10.7479 15.6656 10.6427C15.7688 10.5375 15.8266 10.3961 15.8265 10.2488C15.8265 10.1015 15.7688 9.96005 15.6656 9.85488C15.5625 9.74971 15.4222 9.6892 15.2749 9.68633V9.68632Z" stroke="white" stroke-width="0.2" mask="url(#path-1-outside-1_2_3541)"/>
</svg>
