<svg width="17" height="16" viewBox="0 0 17 16" fill="none" xmlns="http://www.w3.org/2000/svg">
<g opacity="0.5">
<path d="M3.46786 7.58173V2.27251C3.46786 1.51768 4.08579 0.899756 4.84062 0.899756H11.2044H11.2044C11.3153 0.899777 11.4217 0.943844 11.5001 1.02226L3.46786 7.58173ZM3.46786 7.58173H2.77239C2.01756 7.58173 1.39963 8.19965 1.39963 8.95449V13.7273C1.39963 14.4822 2.01756 15.1001 2.77239 15.1001H14.2272C14.982 15.1001 15.6 14.4822 15.6 13.7273V8.95449C15.6 8.19965 14.982 7.58173 14.2272 7.58173H13.8499V3.54527V3.54525C13.8499 3.43435 13.8058 3.328 13.7274 3.24959C13.7274 3.24959 13.7274 3.24959 13.7274 3.24958L11.5001 1.02227L3.46786 7.58173ZM12.2307 8.37037L12.2307 8.3704L11.8236 9.59217C11.8236 9.59218 11.8236 9.59219 11.8236 9.59219C11.78 9.7229 11.6604 9.80905 11.5226 9.80905H5.68892C5.56046 9.80905 5.45062 9.72616 5.4153 9.60254L5.07039 8.39505L5.07039 8.39504C4.96272 8.0182 4.66679 7.73439 4.30424 7.62877V2.27251C4.30424 1.96968 4.53779 1.73613 4.84062 1.73613H10.468V3.22708C10.468 3.80564 10.944 4.28165 11.5226 4.28165H13.0135V7.6275C12.6526 7.7292 12.3535 8.00186 12.2307 8.37037ZM12.6174 9.85679L12.6174 9.85676L13.0245 8.63499C13.0245 8.63498 13.0245 8.63497 13.0245 8.63497C13.0681 8.50426 13.1876 8.41811 13.3255 8.41811H14.2272C14.53 8.41811 14.7636 8.65166 14.7636 8.95449V13.7273C14.7636 14.0302 14.53 14.2637 14.2272 14.2637H2.77239C2.46956 14.2637 2.23601 14.0302 2.23601 13.7273V8.95449C2.23601 8.65166 2.46956 8.41811 2.77239 8.41811H3.99232C4.12078 8.41811 4.23062 8.50101 4.26594 8.62462L4.61085 9.83211L4.70701 9.80465L4.61085 9.83212C4.74795 10.3119 5.18985 10.6454 5.68892 10.6454H11.5226C12.0179 10.6454 12.4607 10.3268 12.6174 9.85679ZM11.3044 2.00931L12.7404 3.44527H11.5226C11.396 3.44527 11.3044 3.35363 11.3044 3.22708V2.00931Z" fill="#070F21" stroke="#070F21" stroke-width="0.2"/>
<path d="M6.11336 4.39976C6.00244 4.39976 5.89608 4.44382 5.81765 4.52224C5.73923 4.60067 5.69517 4.70703 5.69517 4.81795C5.69517 4.92886 5.73923 5.03522 5.81765 5.11365C5.89608 5.19208 6.00244 5.23613 6.11336 5.23613H9.93163C10.0425 5.23613 10.1489 5.19208 10.2273 5.11365C10.3058 5.03522 10.3498 4.92886 10.3498 4.81795C10.3498 4.70703 10.3058 4.60067 10.2273 4.52224C10.1489 4.44381 10.0425 4.39976 9.93163 4.39976H6.11336Z" fill="#070F21" stroke="#070F21" stroke-width="0.2"/>
<path d="M6.11336 5.99082C6.00244 5.99082 5.89608 6.03488 5.81765 6.1133C5.73923 6.19173 5.69517 6.2981 5.69517 6.40901C5.69517 6.51992 5.73923 6.62629 5.81765 6.70471C5.89608 6.78314 6.00244 6.8272 6.11336 6.8272H11.2044C11.3153 6.8272 11.4217 6.78314 11.5001 6.70471C11.5785 6.62629 11.6226 6.51992 11.6226 6.40901C11.6226 6.2981 11.5785 6.19173 11.5001 6.11331C11.4217 6.03488 11.3153 5.99082 11.2044 5.99082H6.11336Z" fill="#070F21" stroke="#070F21" stroke-width="0.2"/>
<path d="M6.11336 7.58164C6.00244 7.58164 5.89608 7.6257 5.81765 7.70413C5.73923 7.78255 5.69517 7.88892 5.69517 7.99983C5.69517 8.11074 5.73923 8.21711 5.81765 8.29553C5.89608 8.37396 6.00244 8.41802 6.11336 8.41802H9.93163C10.0425 8.41802 10.1489 8.37396 10.2273 8.29553C10.3058 8.21711 10.3498 8.11074 10.3498 7.99983C10.3498 7.88892 10.3058 7.78255 10.2273 7.70412C10.1489 7.6257 10.0425 7.58164 9.93163 7.58164H6.11336Z" fill="#070F21" stroke="#070F21" stroke-width="0.2"/>
</g>
</svg>
