<svg width="18" height="18" viewBox="0 0 18 18" fill="none" xmlns="http://www.w3.org/2000/svg">
<g opacity="0.6">
<path d="M1.92697 11.8647L1.92695 11.8646C1.86561 11.8033 1.7928 11.7547 1.71267 11.7215C1.63253 11.6883 1.54665 11.6712 1.45991 11.6712C1.37317 11.6712 1.28728 11.6883 1.20715 11.7215C1.12701 11.7547 1.0542 11.8033 0.992868 11.8646C0.931535 11.926 0.882884 11.9988 0.849691 12.0789L0.942079 12.1172L0.849691 12.0789C0.816498 12.1591 0.799414 12.2449 0.799414 12.3317C0.799414 12.4184 0.816498 12.5043 0.849691 12.5844C0.882884 12.6646 0.931536 12.7374 0.992868 12.7987L0.992898 12.7987L3.23099 15.035L3.23087 15.0351L3.23524 15.039L3.24194 15.0449C3.36563 15.1649 3.53157 15.2313 3.70391 15.2299C3.87693 15.2284 4.04237 15.1587 4.16418 15.0358C4.16427 15.0357 4.16436 15.0356 4.16446 15.0355L6.40216 12.7978C6.40217 12.7978 6.40219 12.7978 6.4022 12.7978C6.52605 12.6741 6.59569 12.5062 6.59579 12.3311C6.59589 12.156 6.52644 11.9881 6.40271 11.8642C6.27898 11.7403 6.1111 11.6707 5.93602 11.6706C5.76093 11.6705 5.59297 11.7399 5.4691 11.8637L5.46898 11.8638L4.35752 12.9777V3.37837C4.35752 3.20345 4.28804 3.0357 4.16435 2.91202C4.04067 2.78833 3.87292 2.71885 3.698 2.71885C3.52308 2.71885 3.35533 2.78833 3.23165 2.91202C3.10796 3.0357 3.03848 3.20345 3.03848 3.37837V12.977L1.92697 11.8647ZM8.26736 4.03106C8.14367 4.15475 8.07419 4.3225 8.07419 4.49742C8.07419 4.67233 8.14367 4.84009 8.26736 4.96377C8.39104 5.08746 8.55879 5.15694 8.73371 5.15694H16.567C16.742 5.15694 16.9097 5.08746 17.0334 4.96377C17.1571 4.84009 17.2266 4.67233 17.2266 4.49742C17.2266 4.3225 17.1571 4.15475 17.0334 4.03106C16.9097 3.90738 16.742 3.83789 16.567 3.83789H8.73371C8.55879 3.83789 8.39104 3.90738 8.26736 4.03106ZM8.73371 7.19503C8.55879 7.19503 8.39104 7.26452 8.26736 7.3882C8.14367 7.51189 8.07419 7.67964 8.07419 7.85456C8.07419 8.02947 8.14367 8.19723 8.26736 8.32091C8.39104 8.44459 8.55879 8.51408 8.73371 8.51408H14.3289C14.5039 8.51408 14.6716 8.4446 14.7953 8.32091C14.919 8.19723 14.9885 8.02947 14.9885 7.85456C14.9885 7.67964 14.919 7.51189 14.7953 7.3882C14.6716 7.26452 14.5039 7.19503 14.3289 7.19503H8.73371ZM8.73371 10.5522C8.55879 10.5522 8.39104 10.6217 8.26736 10.7453C8.14367 10.869 8.07419 11.0368 8.07419 11.2117C8.07419 11.3866 8.14367 11.5544 8.26736 11.6781C8.39104 11.8017 8.55879 11.8712 8.73371 11.8712H12.0908C12.2658 11.8712 12.4335 11.8017 12.5572 11.6781C12.6809 11.5544 12.7504 11.3866 12.7504 11.2117C12.7504 11.0368 12.6809 10.869 12.5572 10.7453C12.4335 10.6217 12.2658 10.5522 12.0908 10.5522H8.73371ZM8.73371 13.9093C8.6471 13.9093 8.56134 13.9264 8.48132 13.9595C8.4013 13.9927 8.3286 14.0412 8.26736 14.1025C8.20611 14.1637 8.15753 14.2364 8.12439 14.3164C8.09125 14.3965 8.07419 14.4822 8.07419 14.5688C8.07419 14.6554 8.09125 14.7412 8.12439 14.8212C8.15753 14.9012 8.20611 14.9739 8.26736 15.0352C8.3286 15.0964 8.4013 15.145 8.48132 15.1782C8.56134 15.2113 8.6471 15.2284 8.73371 15.2284H9.85276C9.93937 15.2284 10.0251 15.2113 10.1051 15.1782C10.1852 15.145 10.2579 15.0964 10.3191 15.0352C10.3804 14.9739 10.4289 14.9012 10.4621 14.8212C10.4952 14.7412 10.5123 14.6554 10.5123 14.5688C10.5123 14.4822 10.4952 14.3965 10.4621 14.3164C10.4289 14.2364 10.3804 14.1637 10.3191 14.1025C10.2579 14.0412 10.1852 13.9927 10.1051 13.9595C10.0251 13.9264 9.93936 13.9093 9.85276 13.9093H8.73371Z" fill="#070F21" stroke="#070F21" stroke-width="0.2"/>
</g>
</svg>
