<svg width="14" height="14" viewBox="0 0 14 14" fill="none" xmlns="http://www.w3.org/2000/svg">
<g opacity="0.5">
<path d="M3.41139 10.0399L4.2379 9.21163L4.23802 9.21151C4.33854 9.11111 4.47482 9.05476 4.61689 9.05484C4.75897 9.05492 4.89519 9.11144 4.99559 9.21196C5.09599 9.31248 5.15235 9.44877 5.15226 9.59084C5.15218 9.73291 5.09566 9.86913 4.99514 9.96953M3.41139 10.0399L4.92447 9.89878M3.41139 10.0399V2.62757C3.41139 2.48563 3.355 2.3495 3.25463 2.24913C3.15427 2.14877 3.01814 2.09238 2.8762 2.09238C2.73426 2.09238 2.59814 2.14877 2.49777 2.24913C2.3974 2.3495 2.34102 2.48563 2.34102 2.62757V10.0395L1.51446 9.21231L1.51443 9.21228C1.46466 9.16251 1.40558 9.12304 1.34056 9.0961C1.27554 9.06917 1.20584 9.05531 1.13546 9.05531C1.06508 9.05531 0.995391 9.06917 0.930368 9.0961C0.865345 9.12304 0.806263 9.16251 0.756497 9.21228C0.70673 9.26205 0.667253 9.32113 0.64032 9.38615C0.613386 9.45118 0.599524 9.52087 0.599524 9.59125C0.599524 9.66163 0.613386 9.73132 0.64032 9.79634C0.667253 9.86137 0.70673 9.92045 0.756497 9.97021L0.756526 9.97024L2.49727 11.7095L2.49714 11.7097L2.50151 11.7135L2.50637 11.7179L3.41139 10.0399ZM4.99514 9.96953L4.92447 9.89878M4.99514 9.96953L4.99518 9.96949L4.92447 9.89878M4.99514 9.96953L3.25479 11.7099L3.18373 11.6395M4.92447 9.89878L3.18373 11.6395M3.18373 11.6395L3.25444 11.7102L3.25451 11.7102L3.18373 11.6395ZM6.58806 11.8257L6.62633 11.7333L6.58806 11.8257C6.65299 11.8526 6.72258 11.8664 6.79286 11.8664H7.66323C7.73351 11.8664 7.80311 11.8526 7.86804 11.8257L7.82977 11.7333L7.86804 11.8257C7.93297 11.7988 7.99197 11.7594 8.04167 11.7097C8.09136 11.66 8.13078 11.601 8.15768 11.5361C8.18458 11.4711 8.19842 11.4015 8.19842 11.3313C8.19842 11.261 8.18458 11.1914 8.15768 11.1265C8.13078 11.0615 8.09136 11.0025 8.04167 10.9528C7.99197 10.9031 7.93297 10.8637 7.86804 10.8368L7.82977 10.9292L7.86804 10.8368C7.80311 10.8099 7.73351 10.7961 7.66323 10.7961H6.79286C6.72258 10.7961 6.65299 10.8099 6.58806 10.8368L6.62633 10.9292L6.58806 10.8368C6.52313 10.8637 6.46413 10.9031 6.41443 10.9528C6.36474 11.0025 6.32531 11.0615 6.29842 11.1265C6.27152 11.1914 6.25768 11.261 6.25768 11.3313C6.25768 11.4015 6.27152 11.4711 6.29842 11.5361C6.32531 11.601 6.36474 11.66 6.41443 11.7097C6.46413 11.7594 6.52313 11.7988 6.58806 11.8257ZM6.41443 3.1195C6.31407 3.21987 6.25768 3.356 6.25768 3.49794C6.25768 3.63988 6.31407 3.776 6.41443 3.87637C6.5148 3.97674 6.65092 4.03312 6.79286 4.03312H12.8855C13.0274 4.03312 13.1635 3.97674 13.2639 3.87637C13.3642 3.776 13.4206 3.63988 13.4206 3.49794C13.4206 3.356 13.3642 3.21987 13.2639 3.1195C13.1635 3.01914 13.0274 2.96275 12.8855 2.96275H6.79286C6.65092 2.96275 6.5148 3.01914 6.41443 3.1195ZM6.79286 5.57386C6.65092 5.57386 6.5148 5.63025 6.41443 5.73061C6.31407 5.83098 6.25768 5.96711 6.25768 6.10905C6.25768 6.25099 6.31407 6.38711 6.41443 6.48748C6.5148 6.58784 6.65092 6.64423 6.79286 6.64423H11.1447C11.2867 6.64423 11.4228 6.58784 11.5231 6.48748C11.6235 6.38711 11.6799 6.25099 11.6799 6.10905C11.6799 5.96711 11.6235 5.83098 11.5231 5.73061C11.4228 5.63025 11.2867 5.57386 11.1447 5.57386H6.79286ZM6.79286 8.18497C6.65092 8.18497 6.5148 8.24135 6.41443 8.34172C6.31407 8.44209 6.25768 8.57821 6.25768 8.72015C6.25768 8.86209 6.31407 8.99822 6.41443 9.09859C6.5148 9.19895 6.65092 9.25534 6.79286 9.25534H9.40397C9.54591 9.25534 9.68204 9.19895 9.78241 9.09859C9.88277 8.99822 9.93916 8.86209 9.93916 8.72015C9.93916 8.57821 9.88277 8.44209 9.7824 8.34172C9.68204 8.24135 9.54591 8.18497 9.40397 8.18497H6.79286Z" fill="#070F21" stroke="#070F21" stroke-width="0.2"/>
</g>
</svg>
