<svg width="18" height="18" viewBox="0 0 18 18" fill="none" xmlns="http://www.w3.org/2000/svg">
<g opacity="0.6" clip-path="url(#clip0_2_2114)">
<path d="M14.2943 0.75H2.68359C1.61741 0.75 0.75 1.61741 0.75 2.68359V15.3164C0.75 16.3826 1.61741 17.25 2.68359 17.25H15.3164C16.3826 17.25 17.25 16.3826 17.25 15.3164V3.70569L14.2943 0.75ZM5.80957 2.03906H9.64453V4.48828H10.9336V2.03906H12.2227V5.13281C12.2227 5.48821 11.9335 5.77734 11.5781 5.77734H6.4541C6.09871 5.77734 5.80957 5.48821 5.80957 5.13281V2.03906ZM13.5117 15.9609H4.52051V11.0391C4.52051 10.6837 4.80964 10.3945 5.16504 10.3945H12.8672C13.2226 10.3945 13.5117 10.6837 13.5117 11.0391V15.9609ZM15.9609 15.3164C15.9609 15.6718 15.6718 15.9609 15.3164 15.9609H14.8008V11.0391C14.8008 9.97288 13.9334 9.10547 12.8672 9.10547H5.16504C4.09886 9.10547 3.23145 9.97288 3.23145 11.0391V15.9609H2.68359C2.3282 15.9609 2.03906 15.6718 2.03906 15.3164V2.68359C2.03906 2.3282 2.3282 2.03906 2.68359 2.03906H4.52051V5.13281C4.52051 6.199 5.38792 7.06641 6.4541 7.06641H11.5781C12.6443 7.06641 13.5117 6.199 13.5117 5.13281V2.03906H13.7604L15.9609 4.23962V15.3164Z" fill="#070F21"/>
</g>
<defs>
<clipPath id="clip0_2_2114">
<rect width="18" height="18" fill="white"/>
</clipPath>
</defs>
</svg>
