<svg width="16" height="18" viewBox="0 0 16 18" fill="none" xmlns="http://www.w3.org/2000/svg">
<path d="M14.714 7.09851L8.74936 1.13388C8.13276 0.51724 7.12933 0.517205 6.51265 1.13388C5.95831 1.68819 5.91057 2.53359 6.31993 3.13725L6.31163 3.17877C5.8816 5.3291 4.83468 7.28533 3.28398 8.836L0.54816 11.5718C-0.0699558 12.19 -0.0700612 13.1904 0.54816 13.8085L2.03927 15.2996C2.65736 15.9178 3.65783 15.9178 4.27598 15.2996L4.64878 14.9268L7.25828 17.5363C7.8764 18.1545 8.8768 18.1545 9.49495 17.5363C10.1116 16.9197 10.1116 15.9163 9.49495 15.2997L8.3766 14.1813L8.74939 13.8085C9.36751 13.1904 9.36758 12.19 8.74939 11.5719L8.49606 11.3185C9.74231 10.4459 11.1577 9.83848 12.6691 9.53617L12.7112 9.52777C13.3283 9.9444 14.1717 9.87743 14.714 9.33515H14.714C15.3306 8.71854 15.3306 7.71519 14.714 7.09851ZM3.53042 14.5541C3.32441 14.7601 2.99085 14.7601 2.78483 14.554L1.29372 13.0629C1.08767 12.8568 1.08767 12.5234 1.29372 12.3174L3.90318 9.70787L6.13989 11.9446C5.88459 12.1999 3.79202 14.2925 3.53042 14.5541ZM8.74936 16.0452C8.95488 16.2507 8.95488 16.5852 8.74936 16.7908C8.54384 16.9963 8.20933 16.9963 8.0038 16.7908L5.3943 14.1813L6.13989 13.4357L8.74936 16.0452ZM6.88545 12.6901C7.04393 12.5317 7.28117 12.2889 7.65558 11.9691L8.0038 12.3174C8.20985 12.5234 8.20985 12.8568 8.0038 13.0629L7.63101 13.4357L6.88545 12.6901ZM6.90784 11.2215L4.62628 8.93989C5.84897 7.52805 6.72457 5.86147 7.19303 4.05093L11.7968 8.6547C9.98626 9.12312 8.31972 9.99872 6.90784 11.2215ZM13.9683 8.58956C13.7623 8.79557 13.4288 8.79557 13.2228 8.58956L7.25821 2.62499C7.05216 2.41891 7.05216 2.08549 7.25821 1.87944C7.46426 1.67339 7.79775 1.67339 8.0038 1.87944L13.9683 7.84396C14.1739 8.04952 14.1739 8.38396 13.9683 8.58956Z" fill="#070F21"/>
</svg>
